<svg width="185" height="38" viewBox="0 0 185 38" fill="none" xmlns="http://www.w3.org/2000/svg">
<path d="M4.87093 37H0.956871V0.53125H4.87093V37ZM13.6516 37H9.7375V0.53125H13.6516V37ZM19.1041 37V2.73438H23.0884V37H19.1041ZM32.4784 37H28.5644V0.53125H32.4784V37ZM37.9309 37V2.73438H41.9153V37H37.9309ZM76.4219 27.8828C76.4219 29.9141 75.9141 31.6484 74.8984 33.0859C73.8984 34.5078 72.4922 35.5938 70.6797 36.3438C68.8672 37.0938 66.7344 37.4688 64.2812 37.4688C62.9844 37.4688 61.7578 37.4062 60.6016 37.2812C59.4453 37.1562 58.3828 36.9766 57.4141 36.7422C56.4453 36.5078 55.5938 36.2188 54.8594 35.875V32.0547C56.0312 32.5391 57.4609 32.9922 59.1484 33.4141C60.8359 33.8203 62.6016 34.0234 64.4453 34.0234C66.1641 34.0234 67.6172 33.7969 68.8047 33.3438C69.9922 32.875 70.8906 32.2109 71.5 31.3516C72.125 30.4766 72.4375 29.4297 72.4375 28.2109C72.4375 27.0391 72.1797 26.0625 71.6641 25.2812C71.1484 24.4844 70.2891 23.7656 69.0859 23.125C67.8984 22.4688 66.2734 21.7734 64.2109 21.0391C62.7578 20.5234 61.4766 19.9609 60.3672 19.3516C59.2578 18.7266 58.3281 18.0234 57.5781 17.2422C56.8281 16.4609 56.2578 15.5547 55.8672 14.5234C55.4922 13.4922 55.3047 12.3125 55.3047 10.9844C55.3047 9.15625 55.7656 7.59375 56.6875 6.29688C57.625 4.98438 58.9141 3.98438 60.5547 3.29688C62.2109 2.59375 64.1094 2.24219 66.25 2.24219C68.0781 2.24219 69.7656 2.41406 71.3125 2.75781C72.875 3.10156 74.3047 3.5625 75.6016 4.14062L74.3594 7.5625C73.125 7.04688 71.8125 6.61719 70.4219 6.27344C69.0469 5.92969 67.625 5.75781 66.1562 5.75781C64.6875 5.75781 63.4453 5.97656 62.4297 6.41406C61.4297 6.83594 60.6641 7.4375 60.1328 8.21875C59.6016 9 59.3359 9.92969 59.3359 11.0078C59.3359 12.2109 59.5859 13.2109 60.0859 14.0078C60.6016 14.8047 61.4141 15.5156 62.5234 16.1406C63.6484 16.75 65.1328 17.3906 66.9766 18.0625C68.9922 18.7969 70.7031 19.5781 72.1094 20.4062C73.5156 21.2188 74.5859 22.2188 75.3203 23.4062C76.0547 24.5781 76.4219 26.0703 76.4219 27.8828ZM87.7806 34.2812C88.4212 34.2812 89.0775 34.2266 89.7494 34.1172C90.4212 34.0078 90.9681 33.875 91.39 33.7188V36.7422C90.9369 36.9453 90.3041 37.1172 89.4916 37.2578C88.6947 37.3984 87.9134 37.4688 87.1478 37.4688C85.7884 37.4688 84.5541 37.2344 83.4447 36.7656C82.3353 36.2812 81.4447 35.4688 80.7728 34.3281C80.1166 33.1875 79.7884 31.6094 79.7884 29.5938V14.3594H76.1322V12.4609L79.8119 10.9375L81.3587 5.35938H83.7025V11.3125H91.2259V14.3594H83.7025V29.4766C83.7025 31.0859 84.0697 32.2891 84.8041 33.0859C85.5541 33.8828 86.5462 34.2812 87.7806 34.2812ZM114.444 11.3125V37H111.257L110.694 33.3906H110.483C109.952 34.2812 109.264 35.0312 108.421 35.6406C107.577 36.25 106.624 36.7031 105.561 37C104.514 37.3125 103.397 37.4688 102.21 37.4688C100.178 37.4688 98.4753 37.1406 97.1003 36.4844C95.7253 35.8281 94.6862 34.8125 93.9831 33.4375C93.2956 32.0625 92.9519 30.2969 92.9519 28.1406V11.3125H96.8894V27.8594C96.8894 30 97.3737 31.6016 98.3425 32.6641C99.3112 33.7109 100.788 34.2344 102.772 34.2344C104.678 34.2344 106.194 33.875 107.319 33.1562C108.46 32.4375 109.28 31.3828 109.78 29.9922C110.28 28.5859 110.53 26.8672 110.53 24.8359V11.3125H114.444ZM128.451 37.4688C125.201 37.4688 122.623 36.3594 120.717 34.1406C118.826 31.9219 117.881 28.625 117.881 24.25C117.881 19.8281 118.85 16.4922 120.787 14.2422C122.725 11.9766 125.303 10.8438 128.522 10.8438C129.881 10.8438 131.068 11.0234 132.084 11.3828C133.1 11.7422 133.975 12.2266 134.709 12.8359C135.443 13.4297 136.061 14.1094 136.561 14.875H136.842C136.779 14.3906 136.717 13.7266 136.654 12.8828C136.592 12.0391 136.561 11.3516 136.561 10.8203V0.53125H140.451V37H137.311L136.725 33.3438H136.561C136.076 34.1094 135.459 34.8047 134.709 35.4297C133.975 36.0547 133.092 36.5547 132.061 36.9297C131.045 37.2891 129.842 37.4688 128.451 37.4688ZM129.061 34.2344C131.811 34.2344 133.756 33.4531 134.897 31.8906C136.037 30.3281 136.607 28.0078 136.607 24.9297V24.2266C136.607 20.9609 136.061 18.4531 134.967 16.7031C133.889 14.9531 131.92 14.0781 129.061 14.0781C126.67 14.0781 124.881 15 123.693 16.8438C122.506 18.6719 121.912 21.1719 121.912 24.3438C121.912 27.5 122.498 29.9375 123.67 31.6562C124.857 33.375 126.654 34.2344 129.061 34.2344ZM149.232 11.3125V37H145.341V11.3125H149.232ZM147.333 1.70312C147.974 1.70312 148.521 1.91406 148.974 2.33594C149.443 2.74219 149.677 3.38281 149.677 4.25781C149.677 5.11719 149.443 5.75781 148.974 6.17969C148.521 6.60156 147.974 6.8125 147.333 6.8125C146.662 6.8125 146.099 6.60156 145.646 6.17969C145.208 5.75781 144.99 5.11719 144.99 4.25781C144.99 3.38281 145.208 2.74219 145.646 2.33594C146.099 1.91406 146.662 1.70312 147.333 1.70312ZM176.27 24.1094C176.27 26.2188 175.997 28.1016 175.45 29.7578C174.903 31.4141 174.114 32.8125 173.083 33.9531C172.052 35.0938 170.802 35.9688 169.333 36.5781C167.88 37.1719 166.231 37.4688 164.388 37.4688C162.669 37.4688 161.091 37.1719 159.653 36.5781C158.231 35.9688 156.997 35.0938 155.95 33.9531C154.919 32.8125 154.114 31.4141 153.536 29.7578C152.973 28.1016 152.692 26.2188 152.692 24.1094C152.692 21.2969 153.169 18.9062 154.122 16.9375C155.075 14.9531 156.434 13.4453 158.2 12.4141C159.981 11.3672 162.098 10.8438 164.552 10.8438C166.895 10.8438 168.942 11.3672 170.692 12.4141C172.458 13.4609 173.825 14.9766 174.794 16.9609C175.778 18.9297 176.27 21.3125 176.27 24.1094ZM156.723 24.1094C156.723 26.1719 156.997 27.9609 157.544 29.4766C158.091 30.9922 158.934 32.1641 160.075 32.9922C161.216 33.8203 162.684 34.2344 164.481 34.2344C166.263 34.2344 167.723 33.8203 168.864 32.9922C170.02 32.1641 170.872 30.9922 171.419 29.4766C171.966 27.9609 172.239 26.1719 172.239 24.1094C172.239 22.0625 171.966 20.2969 171.419 18.8125C170.872 17.3125 170.028 16.1562 168.888 15.3438C167.747 14.5312 166.27 14.125 164.458 14.125C161.786 14.125 159.825 15.0078 158.575 16.7734C157.341 18.5391 156.723 20.9844 156.723 24.1094ZM179.051 34.5625C179.051 33.4688 179.317 32.6953 179.848 32.2422C180.379 31.7734 181.027 31.5391 181.793 31.5391C182.59 31.5391 183.262 31.7734 183.809 32.2422C184.356 32.6953 184.629 33.4688 184.629 34.5625C184.629 35.6406 184.356 36.4297 183.809 36.9297C183.262 37.4141 182.59 37.6562 181.793 37.6562C181.027 37.6562 180.379 37.4141 179.848 36.9297C179.317 36.4297 179.051 35.6406 179.051 34.5625Z" fill="#1A1A1A"/>
</svg>
