<svg width="532" height="131" viewBox="0 0 532 131" fill="none" xmlns="http://www.w3.org/2000/svg">
<path d="M49.0781 83.9688C49.0781 88.0312 48.0938 91.5625 46.125 94.5625C44.1562 97.5625 41.2812 99.875 37.5 101.5C33.75 103.125 29.1875 103.938 23.8125 103.938C21.4375 103.938 19.1094 103.781 16.8281 103.469C14.5781 103.156 12.4062 102.703 10.3125 102.109C8.25 101.484 6.28125 100.719 4.40625 99.8125V86.3125C7.65625 87.75 11.0312 89.0469 14.5312 90.2031C18.0312 91.3594 21.5 91.9375 24.9375 91.9375C27.3125 91.9375 29.2188 91.625 30.6562 91C32.125 90.375 33.1875 89.5156 33.8438 88.4219C34.5 87.3281 34.8281 86.0781 34.8281 84.6719C34.8281 82.9531 34.25 81.4844 33.0938 80.2656C31.9375 79.0469 30.3438 77.9062 28.3125 76.8438C26.3125 75.7812 24.0469 74.6406 21.5156 73.4219C19.9219 72.6719 18.1875 71.7656 16.3125 70.7031C14.4375 69.6094 12.6562 68.2812 10.9688 66.7188C9.28125 65.1562 7.89062 63.2656 6.79688 61.0469C5.73438 58.7969 5.20312 56.1094 5.20312 52.9844C5.20312 48.8906 6.14062 45.3906 8.01562 42.4844C9.89062 39.5781 12.5625 37.3594 16.0312 35.8281C19.5312 34.2656 23.6562 33.4844 28.4062 33.4844C31.9688 33.4844 35.3594 33.9062 38.5781 34.75C41.8281 35.5625 45.2188 36.75 48.75 38.3125L44.0625 49.6094C40.9062 48.3281 38.0781 47.3438 35.5781 46.6562C33.0781 45.9375 30.5312 45.5781 27.9375 45.5781C26.125 45.5781 24.5781 45.875 23.2969 46.4688C22.0156 47.0312 21.0469 47.8438 20.3906 48.9062C19.7344 49.9375 19.4062 51.1406 19.4062 52.5156C19.4062 54.1406 19.875 55.5156 20.8125 56.6406C21.7812 57.7344 23.2188 58.7969 25.125 59.8281C27.0625 60.8594 29.4688 62.0625 32.3438 63.4375C35.8438 65.0938 38.8281 66.8281 41.2969 68.6406C43.7969 70.4219 45.7188 72.5312 47.0625 74.9688C48.4062 77.375 49.0781 80.375 49.0781 83.9688ZM83.7712 49.6094C89.6775 49.6094 94.4431 51.9062 98.0681 56.5C101.724 61.0938 103.552 67.8281 103.552 76.7031C103.552 82.6406 102.693 87.6406 100.974 91.7031C99.2556 95.7344 96.8806 98.7812 93.8494 100.844C90.8181 102.906 87.3337 103.938 83.3962 103.938C80.865 103.938 78.6931 103.625 76.8806 103C75.0681 102.344 73.5212 101.516 72.24 100.516C70.9587 99.4844 69.8494 98.3906 68.9119 97.2344H68.1619C68.4119 98.4844 68.5994 99.7656 68.7244 101.078C68.8494 102.391 68.9119 103.672 68.9119 104.922V126.062H54.615V50.5938H66.24L68.2556 57.3906H68.9119C69.8494 55.9844 70.99 54.6875 72.3337 53.5C73.6775 52.3125 75.2869 51.375 77.1619 50.6875C79.0681 49.9688 81.2712 49.6094 83.7712 49.6094ZM79.1775 61.0469C76.6775 61.0469 74.6931 61.5625 73.2244 62.5938C71.7556 63.625 70.6775 65.1719 69.99 67.2344C69.3337 69.2969 68.9744 71.9062 68.9119 75.0625V76.6094C68.9119 79.9844 69.2244 82.8438 69.8494 85.1875C70.5056 87.5312 71.5837 89.3125 73.0837 90.5312C74.615 91.75 76.7087 92.3594 79.365 92.3594C81.5525 92.3594 83.3494 91.75 84.7556 90.5312C86.1619 89.3125 87.2087 87.5312 87.8962 85.1875C88.615 82.8125 88.9744 79.9219 88.9744 76.5156C88.9744 71.3906 88.1775 67.5312 86.5837 64.9375C84.99 62.3438 82.5212 61.0469 79.1775 61.0469ZM131.074 49.5156C138.105 49.5156 143.496 51.0469 147.246 54.1094C150.996 57.1719 152.871 61.8281 152.871 68.0781V103H142.886L140.121 95.875H139.746C138.246 97.75 136.714 99.2812 135.152 100.469C133.589 101.656 131.792 102.531 129.761 103.094C127.73 103.656 125.261 103.938 122.355 103.938C119.261 103.938 116.48 103.344 114.011 102.156C111.574 100.969 109.652 99.1562 108.246 96.7188C106.839 94.25 106.136 91.125 106.136 87.3438C106.136 81.7812 108.089 77.6875 111.996 75.0625C115.902 72.4062 121.761 70.9375 129.574 70.6562L138.667 70.375V68.0781C138.667 65.3281 137.949 63.3125 136.511 62.0312C135.074 60.75 133.074 60.1094 130.511 60.1094C127.98 60.1094 125.496 60.4688 123.058 61.1875C120.621 61.9062 118.183 62.8125 115.746 63.9062L111.011 54.25C113.792 52.7812 116.902 51.625 120.339 50.7812C123.808 49.9375 127.386 49.5156 131.074 49.5156ZM138.667 78.7188L133.136 78.9062C128.511 79.0312 125.292 79.8594 123.48 81.3906C121.699 82.9219 120.808 84.9375 120.808 87.4375C120.808 89.625 121.449 91.1875 122.73 92.125C124.011 93.0312 125.683 93.4844 127.746 93.4844C130.808 93.4844 133.386 92.5781 135.48 90.7656C137.605 88.9531 138.667 86.375 138.667 83.0312V78.7188ZM183.158 103.938C177.97 103.938 173.548 103 169.892 101.125C166.236 99.2188 163.454 96.2812 161.548 92.3125C159.642 88.3438 158.689 83.2656 158.689 77.0781C158.689 70.6719 159.767 65.4531 161.923 61.4219C164.111 57.3594 167.126 54.375 170.97 52.4688C174.845 50.5625 179.329 49.6094 184.423 49.6094C188.048 49.6094 191.173 49.9688 193.798 50.6875C196.454 51.375 198.767 52.2031 200.736 53.1719L196.517 64.2344C194.267 63.3281 192.173 62.5938 190.236 62.0312C188.298 61.4375 186.361 61.1406 184.423 61.1406C181.923 61.1406 179.845 61.7344 178.189 62.9219C176.533 64.0781 175.298 65.8281 174.486 68.1719C173.673 70.5156 173.267 73.4531 173.267 76.9844C173.267 80.4531 173.704 83.3281 174.579 85.6094C175.454 87.8906 176.72 89.5938 178.376 90.7188C180.033 91.8125 182.048 92.3594 184.423 92.3594C187.392 92.3594 190.033 91.9688 192.345 91.1875C194.658 90.375 196.908 89.25 199.095 87.8125V100.047C196.908 101.422 194.611 102.406 192.204 103C189.829 103.625 186.814 103.938 183.158 103.938ZM227.132 49.6094C231.976 49.6094 236.147 50.5469 239.647 52.4219C243.147 54.2656 245.851 56.9531 247.757 60.4844C249.663 64.0156 250.616 68.3281 250.616 73.4219V80.3594H216.819C216.976 84.3906 218.179 87.5625 220.429 89.875C222.71 92.1562 225.866 93.2969 229.897 93.2969C233.241 93.2969 236.304 92.9531 239.085 92.2656C241.866 91.5781 244.726 90.5469 247.663 89.1719V100.234C245.069 101.516 242.351 102.453 239.507 103.047C236.694 103.641 233.272 103.938 229.241 103.938C223.991 103.938 219.335 102.969 215.272 101.031C211.241 99.0938 208.069 96.1406 205.757 92.1719C203.476 88.2031 202.335 83.2031 202.335 77.1719C202.335 71.0469 203.366 65.9531 205.429 61.8906C207.522 57.7969 210.429 54.7344 214.147 52.7031C217.866 50.6406 222.194 49.6094 227.132 49.6094ZM227.226 59.7812C224.444 59.7812 222.132 60.6719 220.288 62.4531C218.476 64.2344 217.429 67.0312 217.147 70.8438H237.21C237.179 68.7188 236.788 66.8281 236.038 65.1719C235.319 63.5156 234.226 62.2031 232.757 61.2344C231.319 60.2656 229.476 59.7812 227.226 59.7812ZM270.778 30.0625V47.0312C270.778 49 270.716 50.9531 270.591 52.8906C270.497 54.8281 270.372 56.3281 270.216 57.3906H270.778C272.153 55.2344 274.028 53.4062 276.403 51.9062C278.778 50.375 281.856 49.6094 285.637 49.6094C291.512 49.6094 296.278 51.9062 299.934 56.5C303.591 61.0938 305.419 67.8281 305.419 76.7031C305.419 82.6719 304.575 87.6875 302.887 91.75C301.2 95.7812 298.841 98.8281 295.809 100.891C292.778 102.922 289.262 103.938 285.262 103.938C281.419 103.938 278.387 103.25 276.169 101.875C273.95 100.5 272.153 98.9531 270.778 97.2344H269.794L267.403 103H256.481V30.0625H270.778ZM281.044 61.0469C278.544 61.0469 276.559 61.5625 275.091 62.5938C273.622 63.625 272.544 65.1719 271.856 67.2344C271.2 69.2969 270.841 71.9062 270.778 75.0625V76.6094C270.778 81.7031 271.528 85.6094 273.028 88.3281C274.528 91.0156 277.262 92.3594 281.231 92.3594C284.169 92.3594 286.497 91 288.216 88.2812C289.966 85.5625 290.841 81.6406 290.841 76.5156C290.841 71.3906 289.966 67.5312 288.216 64.9375C286.466 62.3438 284.075 61.0469 281.044 61.0469ZM359.096 76.7031C359.096 81.0781 358.503 84.9531 357.315 88.3281C356.159 91.7031 354.456 94.5625 352.206 96.9062C349.987 99.2188 347.299 100.969 344.143 102.156C341.018 103.344 337.487 103.938 333.549 103.938C329.862 103.938 326.471 103.344 323.378 102.156C320.315 100.969 317.643 99.2188 315.362 96.9062C313.112 94.5625 311.362 91.7031 310.112 88.3281C308.893 84.9531 308.284 81.0781 308.284 76.7031C308.284 70.8906 309.315 65.9688 311.378 61.9375C313.44 57.9062 316.378 54.8438 320.19 52.75C324.003 50.6562 328.549 49.6094 333.831 49.6094C338.737 49.6094 343.081 50.6562 346.862 52.75C350.674 54.8438 353.659 57.9062 355.815 61.9375C358.003 65.9688 359.096 70.8906 359.096 76.7031ZM322.862 76.7031C322.862 80.1406 323.237 83.0312 323.987 85.375C324.737 87.7188 325.909 89.4844 327.503 90.6719C329.096 91.8594 331.174 92.4531 333.737 92.4531C336.268 92.4531 338.315 91.8594 339.878 90.6719C341.471 89.4844 342.628 87.7188 343.346 85.375C344.096 83.0312 344.471 80.1406 344.471 76.7031C344.471 73.2344 344.096 70.3594 343.346 68.0781C342.628 65.7656 341.471 64.0312 339.878 62.875C338.284 61.7188 336.206 61.1406 333.643 61.1406C329.862 61.1406 327.112 62.4375 325.393 65.0312C323.706 67.625 322.862 71.5156 322.862 76.7031ZM412.774 76.7031C412.774 81.0781 412.18 84.9531 410.992 88.3281C409.836 91.7031 408.133 94.5625 405.883 96.9062C403.664 99.2188 400.977 100.969 397.821 102.156C394.696 103.344 391.164 103.938 387.227 103.938C383.539 103.938 380.149 103.344 377.055 102.156C373.992 100.969 371.321 99.2188 369.039 96.9062C366.789 94.5625 365.039 91.7031 363.789 88.3281C362.571 84.9531 361.961 81.0781 361.961 76.7031C361.961 70.8906 362.992 65.9688 365.055 61.9375C367.117 57.9062 370.055 54.8438 373.867 52.75C377.68 50.6562 382.227 49.6094 387.508 49.6094C392.414 49.6094 396.758 50.6562 400.539 52.75C404.352 54.8438 407.336 57.9062 409.492 61.9375C411.68 65.9688 412.774 70.8906 412.774 76.7031ZM376.539 76.7031C376.539 80.1406 376.914 83.0312 377.664 85.375C378.414 87.7188 379.586 89.4844 381.18 90.6719C382.774 91.8594 384.852 92.4531 387.414 92.4531C389.946 92.4531 391.992 91.8594 393.555 90.6719C395.149 89.4844 396.305 87.7188 397.024 85.375C397.774 83.0312 398.149 80.1406 398.149 76.7031C398.149 73.2344 397.774 70.3594 397.024 68.0781C396.305 65.7656 395.149 64.0312 393.555 62.875C391.961 61.7188 389.883 61.1406 387.321 61.1406C383.539 61.1406 380.789 62.4375 379.071 65.0312C377.383 67.625 376.539 71.5156 376.539 76.7031ZM440.904 92.5469C442.467 92.5469 443.982 92.3906 445.451 92.0781C446.951 91.7656 448.436 91.375 449.904 90.9062V101.547C448.373 102.234 446.467 102.797 444.186 103.234C441.936 103.703 439.467 103.938 436.779 103.938C433.654 103.938 430.842 103.438 428.342 102.438C425.873 101.406 423.92 99.6406 422.482 97.1406C421.076 94.6094 420.373 91.0938 420.373 86.5938V61.3281H413.529V55.2812L421.404 50.5L425.529 39.4375H434.67V50.5938H449.342V61.3281H434.67V86.5938C434.67 88.5938 435.232 90.0938 436.357 91.0938C437.514 92.0625 439.029 92.5469 440.904 92.5469ZM469.082 30.0625V44.9219C469.082 47.5156 468.988 49.9844 468.801 52.3281C468.644 54.6719 468.519 56.3281 468.426 57.2969H469.176C470.301 55.4844 471.629 54.0156 473.16 52.8906C474.723 51.7656 476.441 50.9375 478.316 50.4062C480.191 49.875 482.207 49.6094 484.363 49.6094C488.144 49.6094 491.441 50.2812 494.254 51.625C497.066 52.9375 499.254 55.0156 500.816 57.8594C502.379 60.6719 503.16 64.3281 503.16 68.8281V103H488.863V72.3906C488.863 68.6406 488.176 65.8125 486.801 63.9062C485.426 62 483.301 61.0469 480.426 61.0469C477.551 61.0469 475.285 61.7188 473.629 63.0625C471.973 64.375 470.801 66.3281 470.113 68.9219C469.426 71.4844 469.082 74.625 469.082 78.3438V103H454.785V30.0625H469.082ZM510.103 96.2969C510.103 93.3594 510.9 91.2969 512.494 90.1094C514.119 88.9219 516.072 88.3281 518.353 88.3281C520.572 88.3281 522.478 88.9219 524.072 90.1094C525.697 91.2969 526.509 93.3594 526.509 96.2969C526.509 99.1094 525.697 101.141 524.072 102.391C522.478 103.641 520.572 104.266 518.353 104.266C516.072 104.266 514.119 103.641 512.494 102.391C510.9 101.141 510.103 99.1094 510.103 96.2969Z" fill="#353535"/>
</svg>
